<svg xmlns="http://www.w3.org/2000/svg" width="16" height="16" viewBox="0 0 16 16" fill="none">
  <path fill-rule="evenodd" clip-rule="evenodd" d="M1.33398 4.00016C1.33398 3.63197 1.63246 3.3335 2.00065 3.3335H2.00732C2.37551 3.3335 2.67398 3.63197 2.67398 4.00016C2.67398 4.36835 2.37551 4.66683 2.00732 4.66683H2.00065C1.63246 4.66683 1.33398 4.36835 1.33398 4.00016ZM4.66732 4.00016C4.66732 3.63197 4.96579 3.3335 5.33398 3.3335H14.0007C14.3688 3.3335 14.6673 3.63197 14.6673 4.00016C14.6673 4.36835 14.3688 4.66683 14.0007 4.66683H5.33398C4.96579 4.66683 4.66732 4.36835 4.66732 4.00016ZM1.33398 8.00016C1.33398 7.63197 1.63246 7.3335 2.00065 7.3335H2.00732C2.37551 7.3335 2.67398 7.63197 2.67398 8.00016C2.67398 8.36835 2.37551 8.66683 2.00732 8.66683H2.00065C1.63246 8.66683 1.33398 8.36835 1.33398 8.00016ZM4.66732 8.00016C4.66732 7.63197 4.96579 7.3335 5.33398 7.3335H14.0007C14.3688 7.3335 14.6673 7.63197 14.6673 8.00016C14.6673 8.36835 14.3688 8.66683 14.0007 8.66683H5.33398C4.96579 8.66683 4.66732 8.36835 4.66732 8.00016ZM1.33398 12.0002C1.33398 11.632 1.63246 11.3335 2.00065 11.3335H2.00732C2.37551 11.3335 2.67398 11.632 2.67398 12.0002C2.67398 12.3684 2.37551 12.6668 2.00732 12.6668H2.00065C1.63246 12.6668 1.33398 12.3684 1.33398 12.0002ZM4.66732 12.0002C4.66732 11.632 4.96579 11.3335 5.33398 11.3335H14.0007C14.3688 11.3335 14.6673 11.632 14.6673 12.0002C14.6673 12.3684 14.3688 12.6668 14.0007 12.6668H5.33398C4.96579 12.6668 4.66732 12.3684 4.66732 12.0002Z" fill="white"/>
</svg>