<svg width="50" height="50" viewBox="0 0 50 50" fill="none" xmlns="http://www.w3.org/2000/svg">
<g clip-path="url(#clip0_1172_3514)">
<path d="M28.125 28.125L28.125 6.25L50 6.25L50 28.4375C50 43.4375 35.9375 45.3125 35.9375 45.3125L34.0625 40.9375C34.0625 40.9375 40.3125 40 41.5625 35C42.8125 31.25 40.3125 28.125 40.3125 28.125L28.125 28.125ZM1.22536e-05 28.125L8.42888e-06 6.25001L21.875 6.25L21.875 28.4375C21.875 43.4375 7.81251 45.3125 7.81251 45.3125L5.93751 40.9375C5.93751 40.9375 12.1875 40 13.4375 35C14.6875 31.25 12.1875 28.125 12.1875 28.125L1.22536e-05 28.125Z" fill="white" fill-opacity="0.3"/>
</g>
<defs>
<clipPath id="clip0_1172_3514">
<rect width="50" height="50" fill="white" transform="translate(50 50) rotate(180)"/>
</clipPath>
</defs>
</svg>
