<svg xmlns="http://www.w3.org/2000/svg" width="20" height="20" viewBox="0 0 20 20" fill="none">
  <g clip-path="url(#clip0_1172_3614)">
    <path d="M19.645 10.1038C19.645 4.91001 15.375 0.698756 10.1063 0.698756C9.55125 0.698756 9.00625 0.746256 8.475 0.836256C7.59152 0.288171 6.57219 -0.00151992 5.5325 5.99724e-06C2.47625 5.99724e-06 1.02399e-06 2.44126 1.02399e-06 5.45501C-0.000598471 6.42637 0.262043 7.37974 0.760001 8.21376C0.631274 8.83552 0.566354 9.4688 0.566251 10.1038C0.566251 15.2988 4.8375 19.51 10.105 19.51C10.691 19.5098 11.2759 19.4571 11.8525 19.3525C12.6585 19.7791 13.5568 20.0014 14.4688 20C17.5238 20 20 17.5575 20 14.5463C20 13.6763 19.7925 12.8538 19.425 12.1238C19.572 11.4605 19.6458 10.7831 19.645 10.1038Z" fill="white"/>
    <path d="M14.9994 14.5986C14.5581 15.2148 13.9069 15.7023 13.0606 16.0473C12.2244 16.3898 11.2231 16.5661 10.0806 16.5661C8.71063 16.5661 7.56187 16.3286 6.66437 15.8586C6.03909 15.5317 5.50085 15.0603 5.09437 14.4836C4.68812 13.9086 4.48438 13.3373 4.48438 12.7836C4.48438 12.4411 4.61813 12.1411 4.88188 11.8973C5.14313 11.6536 5.47813 11.5323 5.87813 11.5323C6.20563 11.5323 6.48813 11.6286 6.71813 11.8198C6.93688 12.0048 7.12563 12.2773 7.27688 12.6261C7.44563 13.0086 7.62937 13.3311 7.82312 13.5823C8.01187 13.8286 8.28063 14.0336 8.62438 14.1948C8.97063 14.3548 9.43687 14.4386 10.0094 14.4386C10.7981 14.4386 11.4456 14.2711 11.9306 13.9448C12.4069 13.6261 12.6369 13.2411 12.6369 12.7711C12.6369 12.4011 12.5156 12.1086 12.2694 11.8798C11.9757 11.6214 11.6281 11.4318 11.2519 11.3248C10.6752 11.1564 10.0913 11.0138 9.50187 10.8973C8.51062 10.6886 7.66937 10.4423 7.00187 10.1598C6.31812 9.8723 5.76563 9.4748 5.36313 8.97855C4.95313 8.47106 4.74563 7.8373 4.74563 7.0923C4.74563 6.3823 4.96313 5.7423 5.39313 5.1898C5.81938 4.64105 6.44188 4.2123 7.24563 3.92105C8.03688 3.6323 8.97813 3.4873 10.0444 3.4873C10.8956 3.4873 11.6444 3.5848 12.2706 3.7773C12.8994 3.9698 13.4294 4.2298 13.8456 4.55105C14.2656 4.87605 14.5781 5.21981 14.7731 5.5798C14.9706 5.94231 15.0719 6.30355 15.0719 6.6523C15.0719 6.98855 14.9406 7.2948 14.6806 7.5598C14.4181 7.8273 14.0881 7.9623 13.7006 7.9623C13.3481 7.9623 13.0706 7.87606 12.8794 7.70981C12.7006 7.55356 12.5144 7.3098 12.3094 6.96231C12.1033 6.55586 11.8111 6.19924 11.4531 5.9173C11.1319 5.67605 10.5969 5.55606 9.85938 5.55606C9.17688 5.55606 8.61938 5.69106 8.20688 5.95855C7.80938 6.2148 7.61563 6.5098 7.61563 6.8598C7.61563 7.07355 7.67812 7.25231 7.80687 7.40605C7.94187 7.57105 8.13312 7.7123 8.37562 7.8323C8.62563 7.95605 8.88438 8.05605 9.14313 8.12605C9.40813 8.19855 9.85187 8.3073 10.4631 8.44605C11.2356 8.60855 11.9444 8.7923 12.5719 8.99105C13.2081 9.1898 13.7556 9.43606 14.2056 9.7248C14.6619 10.0186 15.0231 10.3936 15.2806 10.8436C15.5381 11.2973 15.6681 11.8536 15.6681 12.5011C15.6737 13.2535 15.4395 13.9882 14.9994 14.5986Z" fill="#0B9DCB"/>
  </g>
  <defs>
    <clipPath id="clip0_1172_3614">
      <rect width="20" height="20" fill="white"/>
    </clipPath>
  </defs>
</svg>